<svg width="165" height="101" viewBox="0 0 165 101" fill="none" xmlns="http://www.w3.org/2000/svg">
<path d="M126.704 11.2087C128.216 11.9144 129.631 12.8282 130.957 13.8662C151.355 29.8372 164.031 47.8476 164.803 74.8649C165.211 89.182 152.794 99.2187 138.925 99.2557C131.91 99.2743 124.643 99.2937 116.475 99.3158C93.3723 99.3782 84.0714 99.4026 63.3601 99.4586C42.6488 99.5148 15.0964 103.357 12.4245 84.4746C10.2379 69.0214 12.1343 52.8192 26.7866 34.9743C37.1783 22.3182 47.8126 13.1059 63.5816 7.91969C82.0884 1.83307 108.776 2.84431 126.704 11.2087Z" fill="#96F0FE"/>
<path d="M112.973 14.0222C114.485 14.7027 115.89 15.6129 117.204 16.649C135.988 31.459 147.8 49.627 148.956 74.8563C149.614 89.2175 137.128 99.3026 123.212 99.3024C117.107 99.3023 110.76 99.3023 103.695 99.3024C82.0084 99.3029 73.2772 99.3024 53.8347 99.3029C34.3922 99.3035 8.53627 102.828 5.98513 85.1629C3.89734 70.7061 5.64084 55.5593 19.355 38.9082C29.0815 27.0988 39.0435 18.5105 53.8347 13.7001C71.1501 8.06884 96.1264 6.43744 112.973 14.0222Z" fill="#96F0FE" fill-opacity="0.05"/>
<path d="M120.236 10.0217C121.728 10.7093 123.123 11.6088 124.429 12.629C145.099 28.7686 158.392 48.1278 159.533 75.6215C160.132 90.0549 147.597 100.189 133.61 100.134C126.574 100.106 119.282 100.077 111.09 100.045C87.824 99.9543 78.4571 99.9169 57.599 99.8353C36.7409 99.7539 9.01592 103.405 6.21144 84.5492C3.91631 69.1185 5.72879 52.9677 20.3778 35.2628C30.7672 22.7061 41.4217 13.5864 57.2715 8.51731C75.8907 2.56253 102.181 1.70125 120.236 10.0217Z" fill="#EDFDFF" fill-opacity="0.29"/>
<path d="M101.457 12.2344C107.442 9.97294 114.775 14.2138 112.432 22.218C109.504 32.2232 90.8019 17.5102 101.457 12.2344Z" fill="white" fill-opacity="0.3"/>
<path d="M121.271 26.8175C136.999 27.5244 151.038 42.8543 139.57 57.2629C125.234 75.2737 92.3351 28.1365 121.271 26.8175Z" fill="white" fill-opacity="0.3"/>
<path d="M40.8731 59.6268L42.1508 39.7608C42.2862 37.6557 44.0331 36.0176 46.1425 36.0176H64.5409C66.8917 36.0176 68.7356 38.035 68.5248 40.3763L66.736 60.2423C66.5503 62.3041 64.8222 63.8836 62.7521 63.8836H44.8648C42.5547 63.8836 40.7248 61.9322 40.8731 59.6268Z" fill="white" fill-opacity="0.5" stroke="#252525" stroke-opacity="0.71" stroke-width="2"/>
<path d="M91.7738 59.6268L93.0515 39.7608C93.1869 37.6557 94.9338 36.0176 97.0433 36.0176H115.442C117.792 36.0176 119.636 38.035 119.426 40.3763L117.637 60.2423C117.451 62.3041 115.723 63.8836 113.653 63.8836H95.7655C93.4554 63.8836 91.6255 61.9322 91.7738 59.6268Z" fill="white" fill-opacity="0.5" stroke="#252525" stroke-opacity="0.71" stroke-width="2"/>
<path d="M68.2004 49.574H91.8585" stroke="#252525" stroke-opacity="0.71" stroke-width="2"/>
<path d="M0.452209 20.9367C6.99469 20.3622 9.6216 10.165 10.1172 5.13818C10.1172 15.4057 16.9578 19.915 20.4511 20.9157C20.476 20.9225 20.5008 20.9295 20.5257 20.9367C20.501 20.9299 20.4762 20.9229 20.4511 20.9157C15.6889 19.6169 12.5265 26.5211 10.9642 32.2414C10.9999 33.4374 10.7467 34.6995 10.1172 36.0167C10.3079 34.9119 10.5902 33.6106 10.9642 32.2414C10.7974 26.6565 4.33034 22.5138 0.452209 20.9367Z" fill="#FFDC62"/>
<path d="M10.1172 5.13818C9.6216 10.165 6.99469 20.3622 0.452209 20.9367C5.16082 22.8515 13.6859 28.5483 10.1172 36.0167C11.1085 30.2721 14.578 19.2135 20.5257 20.9367C17.0562 19.9793 10.1172 15.4793 10.1172 5.13818Z" stroke="#FFDC62"/>
<path d="M19.0919 8.32597C22.1295 8.04573 23.3491 3.07148 23.5793 0.619385C23.5793 5.62793 26.7552 7.82757 28.3771 8.31574C28.3887 8.31904 28.4002 8.32245 28.4118 8.32597C28.4003 8.32265 28.3888 8.31924 28.3771 8.31574C26.1661 7.68218 24.6979 11.0501 23.9725 13.8405C23.989 14.4239 23.8715 15.0395 23.5793 15.6821C23.6678 15.1432 23.7988 14.5084 23.9725 13.8405C23.895 11.1161 20.8925 9.0953 19.0919 8.32597Z" fill="#FFDC62"/>
<path d="M23.5793 0.619385C23.3491 3.07148 22.1295 8.04573 19.0919 8.32597C21.2781 9.26005 25.2361 12.039 23.5793 15.6821C24.0395 12.8798 25.6503 7.48539 28.4118 8.32597C26.8009 7.85896 23.5793 5.66383 23.5793 0.619385Z" stroke="#FFDC62"/>
<path d="M64.9743 83.4639H95.0846" stroke="#252525" stroke-opacity="0.71" stroke-width="2"/>
</svg>
