<svg width="1070" height="203" viewBox="0 0 1070 203" fill="none" xmlns="http://www.w3.org/2000/svg">
<path d="M846.687 172.424C945.495 222.759 1031.11 201.75 1070 172.424V0H0V172.424C101.142 224.631 170.739 196.563 208.292 172.424C260.866 138.63 323.453 122.32 414.581 172.424C489.186 213.444 583.318 188.78 622.873 172.424C669.939 152.963 757.061 126.768 846.687 172.424Z" fill="#C8C8C8" fill-opacity="0.5"/>
<path d="M55.4554 168.413C99.5194 190.13 170.633 177.836 195.199 158.377C202.734 149.271 194.497 142.686 185.036 149.55C114.156 183.791 64.1317 154.108 50.2446 154.283C40.1067 154.41 46.9544 164.223 55.4554 168.413Z" fill="white" fill-opacity="0.55"/>
<path d="M894.053 163.645C935.551 189.236 1007.65 183.424 1034.2 166.279C1042.68 157.898 1035.2 150.601 1025.04 156.577C950.802 184.249 904.234 150.195 890.397 149.114C880.295 148.325 886.047 158.708 894.053 163.645Z" fill="white" fill-opacity="0.55"/>
</svg>
