<svg width="24" height="24" viewBox="0 0 24 24" fill="none" xmlns="http://www.w3.org/2000/svg">
<path fill-rule="evenodd" clip-rule="evenodd" d="M10.2 0C4.5667 0 0 4.5667 0 10.2C0 15.8333 4.5667 20.4 10.2 20.4C12.5842 20.4 14.7774 19.582 16.5142 18.2112L21.9515 23.6485C22.4201 24.1172 23.1799 24.1172 23.6485 23.6485C24.1172 23.1799 24.1172 22.4201 23.6485 21.9515L18.2112 16.5142C19.582 14.7774 20.4 12.5842 20.4 10.2C20.4 4.5667 15.8333 0 10.2 0ZM2.4 10.2C2.4 5.89218 5.89218 2.4 10.2 2.4C14.5078 2.4 18 5.89218 18 10.2C18 14.5078 14.5078 18 10.2 18C5.89218 18 2.4 14.5078 2.4 10.2Z" fill="#656565"/>
</svg>
