<svg width="66" height="79" viewBox="0 0 66 79" fill="none" xmlns="http://www.w3.org/2000/svg">
<path d="M30.4725 44.5143L9.30273 31.235L4.96959 34.6223L22.3581 43.8764L14.0858 50.3431L29.9346 57.6277L23.6319 62.5547L43.2979 70.6631L30.5145 61.6169L36.0294 57.3057L21.5843 50.1932L30.4725 44.5143Z" fill="#FEA996" stroke="#FEA996" stroke-width="2"/>
<path d="M52.3028 23.7077L34.3163 1.77626L29.4525 3.46254L44.1027 21.2564L33.3901 24.4565L46.994 39.5291L39.0027 41.6829L56.4604 57.938L46.1315 44.4541L54.3816 40.8229L41.5902 26.9077L52.3028 23.7077Z" fill="#FEA996" stroke="#FEA996" stroke-width="2"/>
<path d="M27.4725 45.5143L6.30273 32.235L1.96959 35.6223L19.3581 44.8764L11.0858 51.3431L26.9346 58.6277L20.6319 63.5547L40.2979 71.6631L27.5145 62.6169L33.0294 58.3057L18.5843 51.1932L27.4725 45.5143Z" fill="#2D3F58" stroke="#2D3F58" stroke-width="2"/>
<path d="M49.3028 24.7077L31.3163 2.77626L26.4525 4.46254L41.1027 22.2564L30.3901 25.4565L43.994 40.5291L36.0027 42.6829L53.4604 58.938L43.1315 45.4541L51.3816 41.8229L38.5902 27.9077L49.3028 24.7077Z" fill="#2D3F58" stroke="#2D3F58" stroke-width="2"/>
</svg>
