<svg width="657" height="259" viewBox="0 0 657 259" fill="none" xmlns="http://www.w3.org/2000/svg">
<path d="M59 109.117C70.4074 108.131 74.9877 90.628 75.8519 82C75.8519 99.6232 87.779 107.363 93.8699 109.081C93.9132 109.092 93.9566 109.104 94 109.117C93.9569 109.105 93.9136 109.093 93.8699 109.081C85.5665 106.851 80.0527 118.702 77.3285 128.52C77.3908 130.573 76.9493 132.739 75.8519 135C76.1843 133.104 76.6765 130.87 77.3285 128.52C77.0378 118.934 65.7619 111.824 59 109.117Z" fill="#FFDC62"/>
<path d="M75.8519 82C74.9877 90.628 70.4074 108.131 59 109.117C67.2099 112.403 82.0741 122.181 75.8519 135C77.5802 125.14 83.6296 106.159 94 109.117C87.9506 107.473 75.8519 99.7495 75.8519 82Z" stroke="#FFDC62"/>
<path d="M118 63.5352C126.8 62.6793 130.333 47.4885 131 40C131 55.2956 140.201 62.0131 144.9 63.5039C144.933 63.514 144.966 63.5244 145 63.5352C144.967 63.525 144.933 63.5146 144.9 63.5039C138.494 61.5691 134.241 71.8543 132.139 80.3759C132.187 82.1575 131.847 84.0377 131 86C131.256 84.3542 131.636 82.4155 132.139 80.3759C131.915 72.0559 123.216 65.8846 118 63.5352Z" fill="#FFDC62"/>
<path d="M131 40C130.333 47.4885 126.8 62.6793 118 63.5352C124.333 66.3877 135.8 74.8743 131 86C132.333 77.4421 137 60.9681 145 63.5352C140.333 62.109 131 55.4052 131 40Z" stroke="#FFDC62"/>
<path d="M253.998 39.1496H354.018C365.064 39.1496 374.018 48.1039 374.018 59.1496V71.1412C374.018 82.1869 365.064 91.1412 354.018 91.1412H300.249C293.622 91.1412 288.249 96.5138 288.249 103.141V107.931V113.547C288.249 120.175 293.622 125.547 300.249 125.547H338.971C350.017 125.547 358.971 134.502 358.971 145.547V158.348C358.971 169.394 350.017 178.348 338.971 178.348H300.249C293.622 178.348 288.249 183.721 288.249 190.348V239C288.249 250.046 279.295 259 268.249 259H245.998C234.952 259 225.998 250.046 225.998 239V67.1496C225.998 51.6856 238.534 39.1496 253.998 39.1496Z" fill="#2D3F58"/>
<path d="M510.795 109.048L573 109.048C581.837 109.048 589 116.211 589 125.048V131.251C589 140.088 581.837 147.251 573 147.251H538.369C533.95 147.251 530.369 150.833 530.369 155.251V156.212V161.133C530.369 165.551 533.95 169.133 538.369 169.133H566.913C575.749 169.133 582.913 176.296 582.913 185.133V188.006C582.913 196.843 575.749 204.006 566.913 204.006H538.369C533.95 204.006 530.369 207.588 530.369 212.006V214.106C530.369 218.524 533.95 222.106 538.369 222.106H570.622C579.458 222.106 586.622 229.27 586.622 238.106V241.176C586.622 250.013 579.458 257.176 570.622 257.176H510.795C497.541 257.176 486.795 246.431 486.795 233.176V133.048C486.795 119.793 497.541 109.048 510.795 109.048Z" fill="#2D3F58"/>
<path d="M385.088 225.254C404.069 210.641 427.986 194.555 418.872 179.543C411.238 166.968 397.654 166.991 387.533 169.569C383.501 170.596 379.134 167.992 378.821 163.843L377.583 147.438C377.351 144.363 378.322 141.226 381.105 139.897C391.847 134.767 418.202 133.188 435.853 139.241C479.639 154.256 455.401 203.398 430.26 228.586C429.622 229.225 430.076 230.324 430.978 230.324H451.96C455.274 230.324 457.96 233.01 457.96 236.324V251.272C457.96 254.586 455.274 257.272 451.96 257.272H390.028C385.609 257.272 382.028 253.69 382.028 249.272V243.531V231.516C382.028 229.066 383.146 226.749 385.088 225.254Z" fill="#2D3F58"/>
<path d="M247 32H347.02C358.066 32 367.02 40.9543 367.02 52V63.9916C367.02 75.0373 358.066 83.9916 347.02 83.9916H293.252C286.624 83.9916 281.252 89.3642 281.252 95.9916V100.782V106.398C281.252 113.025 286.624 118.398 293.252 118.398H331.973C343.019 118.398 351.973 127.352 351.973 138.398V151.199C351.973 162.244 343.019 171.199 331.973 171.199H293.252C286.624 171.199 281.252 176.571 281.252 183.199V231.85C281.252 242.896 272.297 251.85 261.252 251.85H239C227.954 251.85 219 242.896 219 231.85V60C219 44.536 231.536 32 247 32Z" fill="#7CEDFF"/>
<path d="M503.798 101.898L566.002 101.898C574.839 101.898 582.002 109.062 582.002 117.898V124.102C582.002 132.938 574.839 140.102 566.002 140.102H531.371C526.953 140.102 523.371 143.683 523.371 148.102V149.063V153.983C523.371 158.402 526.953 161.983 531.371 161.983H559.915C568.752 161.983 575.915 169.147 575.915 177.983V180.856C575.915 189.693 568.752 196.856 559.915 196.856H531.371C526.953 196.856 523.371 200.438 523.371 204.856V206.957C523.371 211.375 526.953 214.957 531.371 214.957H563.624C572.461 214.957 579.624 222.12 579.624 230.957V234.027C579.624 242.863 572.461 250.027 563.624 250.027H503.798C490.543 250.027 479.798 239.282 479.798 226.027V125.898C479.798 112.643 490.543 101.898 503.798 101.898Z" fill="#7CEDFF"/>
<path d="M378.09 218.105C397.072 203.491 420.989 187.405 411.875 172.394C404.24 159.819 390.657 159.842 380.535 162.42C376.503 163.447 372.136 160.842 371.823 156.693L370.586 140.289C370.354 137.213 371.324 134.077 374.108 132.748C384.849 127.618 411.205 126.038 428.856 132.091C472.642 147.107 448.403 196.249 423.262 221.437C422.625 222.075 423.079 223.174 423.981 223.174H444.963C448.276 223.174 450.963 225.861 450.963 229.174V244.122C450.963 247.436 448.276 250.122 444.963 250.122H383.03C378.612 250.122 375.03 246.541 375.03 242.122V236.382V224.367C375.03 221.916 376.148 219.6 378.09 218.105Z" fill="#FFDC62"/>
<g filter="url(#filter0_b_454_44)">
<path d="M243 38C236.731 38.2979 223.3 45.5583 224 59.5L224 84.5" stroke="white" stroke-opacity="0.8" stroke-width="3" stroke-linecap="round"/>
</g>
<g filter="url(#filter1_b_454_44)">
<path d="M225.248 214.209V234.317C225.394 238.19 228.31 245.756 238.806 245.041" stroke="white" stroke-opacity="0.8" stroke-width="3" stroke-linecap="round"/>
</g>
<g filter="url(#filter2_b_454_44)">
<path d="M347 149.5C347 156.203 344.807 166.894 329.5 166" stroke="white" stroke-opacity="0.8" stroke-width="3" stroke-linecap="round"/>
</g>
<g filter="url(#filter3_b_454_44)">
<path d="M362.5 62C362.5 69.1496 359.87 79 345 79" stroke="white" stroke-opacity="0.8" stroke-width="3" stroke-linecap="round"/>
</g>
<g filter="url(#filter4_b_454_44)">
<path d="M429.804 137.457C439.425 139.691 453.421 152.65 446.86 174.545" stroke="white" stroke-opacity="0.8" stroke-width="3" stroke-linecap="round"/>
</g>
<g filter="url(#filter5_b_454_44)">
<path d="M485.785 131.201V122.711C485.435 110.914 497.156 106.624 502.842 106.624L507.215 106.624" stroke="white" stroke-opacity="0.8" stroke-width="3" stroke-linecap="round"/>
</g>
<g filter="url(#filter6_b_454_44)">
<path d="M379.946 227.72V236.064C379.946 239.445 379.628 244.085 382.919 244.86C383.334 244.958 383.799 245.054 384.319 245.148H390.879" stroke="white" stroke-opacity="0.8" stroke-width="3" stroke-linecap="round"/>
</g>
<g filter="url(#filter7_b_454_44)">
<path d="M571.943 179.014C572.381 183.482 570.369 192.151 558.823 192.866" stroke="white" stroke-opacity="0.8" stroke-width="3" stroke-linecap="round"/>
</g>
<g filter="url(#filter8_b_454_44)">
<path d="M575.005 232.189C575.442 236.657 573.43 245.326 561.884 246.041" stroke="white" stroke-opacity="0.8" stroke-width="3" stroke-linecap="round"/>
</g>
<path d="M163.8 187L183.308 187C188.108 187 192 190.892 192 195.692C192 200.492 188.108 204.384 183.308 204.384H169.115C166.863 204.384 165.038 206.21 165.038 208.462C165.038 211.709 167.67 214.341 170.917 214.341H181.266C185.648 214.341 189.201 217.893 189.201 222.275C189.201 226.657 185.648 230.209 181.266 230.209H168.567C166.618 230.209 165.038 231.79 165.038 233.739C165.038 236.338 167.145 238.445 169.744 238.445H182.927C187.334 238.445 190.906 242.018 190.906 246.424C190.906 250.831 187.334 254.404 182.927 254.404H163.363C153.221 254.404 145 246.182 145 236.041V205.8C145 195.417 153.417 187 163.8 187Z" stroke="#BEBEBE" stroke-width="2"/>
<path d="M77.1113 243.667V197.737C77.1113 191.807 81.9183 187 87.8481 187C93.7779 187 98.5849 191.807 98.5849 197.737V209.189C98.5849 211.398 100.376 213.189 102.585 213.189H111.361C113.57 213.189 115.361 211.398 115.361 209.189V197.178C115.361 191.557 119.918 187 125.539 187C131.16 187 135.716 191.557 135.716 197.178V244.226C135.716 249.847 131.16 254.404 125.539 254.404C119.918 254.404 115.361 249.847 115.361 244.226V235.8C115.361 233.745 113.695 232.079 111.64 232.079H102.306C100.251 232.079 98.5849 233.745 98.5849 235.8V243.667C98.5849 249.596 93.7779 254.404 87.8481 254.404C81.9183 254.404 77.1113 249.596 77.1113 243.667Z" stroke="#BEBEBE" stroke-width="2"/>
<path d="M62.324 187H14.1452C8.54214 187 4 191.542 4 197.145C4 202.748 8.54214 207.29 14.1452 207.29H22.1092C25.0263 207.29 27.391 209.655 27.391 212.572V244.389C27.391 250.249 32.1418 255 38.0022 255C43.8626 255 48.6134 250.249 48.6134 244.389V212.677C48.6134 209.702 51.0251 207.29 54.0002 207.29H62.324C67.927 207.29 72.4691 202.748 72.4691 197.145C72.4691 191.542 67.927 187 62.324 187Z" stroke="#BEBEBE" stroke-width="2"/>
<path d="M159.8 185L179.308 185C184.108 185 188 188.892 188 193.692C188 198.492 184.108 202.384 179.308 202.384H165.115C162.863 202.384 161.038 204.21 161.038 206.462C161.038 209.709 163.67 212.341 166.917 212.341H177.266C181.648 212.341 185.201 215.893 185.201 220.275C185.201 224.657 181.648 228.209 177.266 228.209H164.567C162.618 228.209 161.038 229.79 161.038 231.739C161.038 234.338 163.145 236.445 165.744 236.445H178.927C183.334 236.445 186.906 240.018 186.906 244.424C186.906 248.831 183.334 252.404 178.927 252.404H159.363C149.221 252.404 141 244.182 141 234.041V203.8C141 193.417 149.417 185 159.8 185Z" fill="#BEBEBE"/>
<path d="M73.1113 241.667V195.737C73.1113 189.807 77.9183 185 83.8481 185C89.7779 185 94.5849 189.807 94.5849 195.737V207.189C94.5849 209.398 96.3758 211.189 98.5849 211.189H107.361C109.57 211.189 111.361 209.398 111.361 207.189V195.178C111.361 189.557 115.918 185 121.539 185C127.16 185 131.716 189.557 131.716 195.178V242.226C131.716 247.847 127.16 252.404 121.539 252.404C115.918 252.404 111.361 247.847 111.361 242.226V233.8C111.361 231.745 109.695 230.079 107.64 230.079H98.3057C96.2507 230.079 94.5849 231.745 94.5849 233.8V241.667C94.5849 247.596 89.7779 252.404 83.8481 252.404C77.9183 252.404 73.1113 247.596 73.1113 241.667Z" fill="#BEBEBE"/>
<path d="M58.324 185H10.1452C4.54214 185 0 189.542 0 195.145C0 200.748 4.54214 205.29 10.1452 205.29H18.1092C21.0263 205.29 23.391 207.655 23.391 210.572V242.389C23.391 248.249 28.1418 253 34.0022 253C39.8626 253 44.6134 248.249 44.6134 242.389V210.677C44.6134 207.702 47.0251 205.29 50.0002 205.29H58.324C63.927 205.29 68.4691 200.748 68.4691 195.145C68.4691 189.542 63.927 185 58.324 185Z" fill="#BEBEBE"/>
<path d="M529.61 39.0868L533.185 20.4292C533.832 17.0534 536.785 14.6125 540.222 14.6125C544.721 14.6125 548.106 18.7087 547.26 23.1264L544.657 36.7104C544.42 37.9435 545.365 39.0868 546.621 39.0868H551.842C552.947 39.0868 553.842 38.1914 553.842 37.0868V10.8871C553.842 7.07361 556.933 3.98218 560.747 3.98218C564.56 3.98218 567.652 7.07361 567.652 10.8871V37.0868C567.652 38.1914 568.547 39.0868 569.652 39.0868H572.702C576.389 39.0868 579.377 42.0752 579.377 45.7617C579.377 49.4481 576.389 52.4365 572.702 52.4365H569.652C568.547 52.4365 567.652 53.3319 567.652 54.4365V62.095C567.652 65.9085 564.56 68.9999 560.747 68.9999C556.933 68.9999 553.842 65.9085 553.842 62.095V54.4365C553.842 53.3319 552.947 52.4365 551.842 52.4365H536.792C531.821 52.4365 528.053 47.9492 528.913 43.0524L529.61 39.0868Z" stroke="#2D3F58"/>
<path d="M590.287 30.676V26.0835C590.287 22.7641 592.978 20.0732 596.297 20.0732C599.617 20.0732 602.307 22.7641 602.307 26.0835V30.676H606.171C609.167 30.676 611.596 33.1047 611.596 36.1006C611.596 39.0966 609.167 41.5253 606.171 41.5253H604.165C603.139 41.5253 602.307 42.3571 602.307 43.3831V57.0596C602.675 59.3834 604.804 59.6546 607.335 59.1435C610.936 58.4163 614.104 61.2471 612.86 64.7038C612.57 65.5078 612.06 66.2246 611.33 66.6686C603.221 71.5993 589.74 68.6637 589.74 58.2925V43.2738C589.74 42.3081 588.958 41.5253 587.992 41.5253H586.423C583.427 41.5253 580.998 39.0966 580.998 36.1006C580.998 33.1047 583.427 30.676 586.423 30.676H590.287Z" stroke="#2D3F58"/>
<path d="M633.07 49.9644V63.007C633.07 66.3169 630.387 69 627.077 69C623.768 69 621.084 66.3168 621.084 63.007V9.48074C621.084 6.17093 623.768 3.48779 627.077 3.48779C630.387 3.48779 633.07 6.17093 633.07 9.48074V31.5219C633.07 33.093 634.823 34.0723 636.289 33.5084C646.464 29.5957 655.292 37.6513 656 49.9644V63.6584C656 66.6085 653.608 69 650.658 69C647.708 69 645.317 66.6085 645.317 63.6585V49.9644C645.317 45.8111 642.711 43.784 638.803 43.784C635.937 43.5368 633.07 46.5033 633.07 49.9644Z" stroke="#2D3F58"/>
<path d="M525.345 36.5991L528.921 17.9415C529.567 14.5656 532.521 12.1247 535.958 12.1247C540.456 12.1247 543.842 16.2209 542.995 20.6387L540.392 34.2227C540.156 35.4558 541.101 36.5991 542.356 36.5991H547.577C548.682 36.5991 549.577 35.7037 549.577 34.5991V8.39936C549.577 4.58588 552.669 1.49445 556.482 1.49445C560.296 1.49445 563.387 4.58588 563.387 8.39936V34.5991C563.387 35.7037 564.283 36.5991 565.387 36.5991H568.438C572.124 36.5991 575.113 39.5875 575.113 43.2739C575.113 46.9603 572.124 49.9487 568.438 49.9487H565.387C564.283 49.9487 563.387 50.8442 563.387 51.9487V59.6073C563.387 63.4208 560.296 66.5122 556.482 66.5122C552.669 66.5122 549.577 63.4208 549.577 59.6073V51.9487C549.577 50.8442 548.682 49.9487 547.577 49.9487H532.528C527.556 49.9487 523.788 45.4615 524.648 40.5646L525.345 36.5991Z" fill="#2D3F58" stroke="white" stroke-opacity="0.9" stroke-width="2"/>
<path d="M586.022 28.1882V23.5957C586.022 20.2763 588.713 17.5854 592.032 17.5854C595.352 17.5854 598.043 20.2763 598.043 23.5957V28.1882H601.907C604.903 28.1882 607.332 30.6169 607.332 33.6129C607.332 36.6088 604.903 39.0375 601.907 39.0375H599.901C598.875 39.0375 598.043 39.8693 598.043 40.8953V54.5718C598.411 56.8956 600.539 57.1668 603.07 56.6557C606.671 55.9285 609.84 58.7593 608.595 62.216C608.305 63.02 607.796 63.7369 607.066 64.1808C598.957 69.1115 585.476 66.1759 585.476 55.8047V40.786C585.476 39.8203 584.693 39.0375 583.727 39.0375H582.158C579.162 39.0375 576.733 36.6088 576.733 33.6129C576.733 30.6169 579.162 28.1882 582.158 28.1882H586.022Z" fill="#2D3F58" stroke="white" stroke-opacity="0.9" stroke-width="2"/>
<path d="M628.806 47.4766V60.5192C628.806 63.8291 626.123 66.5122 622.813 66.5122C619.503 66.5122 616.82 63.8291 616.82 60.5192V6.99295C616.82 3.68313 619.503 1 622.813 1C626.123 1 628.806 3.68314 628.806 6.99295V29.0341C628.806 30.6052 630.558 31.5845 632.025 31.0206C642.2 27.1079 651.027 35.1635 651.735 47.4766V61.1707C651.735 64.1207 649.344 66.5122 646.394 66.5122C643.444 66.5122 641.052 64.1207 641.052 61.1707V47.4766C641.052 43.3233 638.447 41.2962 634.538 41.2962C631.672 41.049 628.806 44.0156 628.806 47.4766Z" fill="#2D3F58" stroke="white" stroke-opacity="0.9" stroke-width="2"/>
<defs>
<filter id="filter0_b_454_44" x="220.474" y="34.4999" width="26.0264" height="53.5001" filterUnits="userSpaceOnUse" color-interpolation-filters="sRGB">
<feFlood flood-opacity="0" result="BackgroundImageFix"/>
<feGaussianBlur in="BackgroundImageFix" stdDeviation="1"/>
<feComposite in2="SourceAlpha" operator="in" result="effect1_backgroundBlur_454_44"/>
<feBlend mode="normal" in="SourceGraphic" in2="effect1_backgroundBlur_454_44" result="shape"/>
</filter>
<filter id="filter1_b_454_44" x="221.748" y="210.709" width="20.5581" height="37.8799" filterUnits="userSpaceOnUse" color-interpolation-filters="sRGB">
<feFlood flood-opacity="0" result="BackgroundImageFix"/>
<feGaussianBlur in="BackgroundImageFix" stdDeviation="1"/>
<feComposite in2="SourceAlpha" operator="in" result="effect1_backgroundBlur_454_44"/>
<feBlend mode="normal" in="SourceGraphic" in2="effect1_backgroundBlur_454_44" result="shape"/>
</filter>
<filter id="filter2_b_454_44" x="326" y="146" width="24.5" height="23.5524" filterUnits="userSpaceOnUse" color-interpolation-filters="sRGB">
<feFlood flood-opacity="0" result="BackgroundImageFix"/>
<feGaussianBlur in="BackgroundImageFix" stdDeviation="1"/>
<feComposite in2="SourceAlpha" operator="in" result="effect1_backgroundBlur_454_44"/>
<feBlend mode="normal" in="SourceGraphic" in2="effect1_backgroundBlur_454_44" result="shape"/>
</filter>
<filter id="filter3_b_454_44" x="341.5" y="58.5" width="24.5" height="24" filterUnits="userSpaceOnUse" color-interpolation-filters="sRGB">
<feFlood flood-opacity="0" result="BackgroundImageFix"/>
<feGaussianBlur in="BackgroundImageFix" stdDeviation="1"/>
<feComposite in2="SourceAlpha" operator="in" result="effect1_backgroundBlur_454_44"/>
<feBlend mode="normal" in="SourceGraphic" in2="effect1_backgroundBlur_454_44" result="shape"/>
</filter>
<filter id="filter4_b_454_44" x="426.303" y="133.956" width="25.75" height="44.0893" filterUnits="userSpaceOnUse" color-interpolation-filters="sRGB">
<feFlood flood-opacity="0" result="BackgroundImageFix"/>
<feGaussianBlur in="BackgroundImageFix" stdDeviation="1"/>
<feComposite in2="SourceAlpha" operator="in" result="effect1_backgroundBlur_454_44"/>
<feBlend mode="normal" in="SourceGraphic" in2="effect1_backgroundBlur_454_44" result="shape"/>
</filter>
<filter id="filter5_b_454_44" x="482.277" y="103.124" width="28.438" height="31.5768" filterUnits="userSpaceOnUse" color-interpolation-filters="sRGB">
<feFlood flood-opacity="0" result="BackgroundImageFix"/>
<feGaussianBlur in="BackgroundImageFix" stdDeviation="1"/>
<feComposite in2="SourceAlpha" operator="in" result="effect1_backgroundBlur_454_44"/>
<feBlend mode="normal" in="SourceGraphic" in2="effect1_backgroundBlur_454_44" result="shape"/>
</filter>
<filter id="filter6_b_454_44" x="376.437" y="224.22" width="17.9429" height="24.4271" filterUnits="userSpaceOnUse" color-interpolation-filters="sRGB">
<feFlood flood-opacity="0" result="BackgroundImageFix"/>
<feGaussianBlur in="BackgroundImageFix" stdDeviation="1"/>
<feComposite in2="SourceAlpha" operator="in" result="effect1_backgroundBlur_454_44"/>
<feBlend mode="normal" in="SourceGraphic" in2="effect1_backgroundBlur_454_44" result="shape"/>
</filter>
<filter id="filter7_b_454_44" x="555.323" y="175.514" width="20.1748" height="20.8525" filterUnits="userSpaceOnUse" color-interpolation-filters="sRGB">
<feFlood flood-opacity="0" result="BackgroundImageFix"/>
<feGaussianBlur in="BackgroundImageFix" stdDeviation="1"/>
<feComposite in2="SourceAlpha" operator="in" result="effect1_backgroundBlur_454_44"/>
<feBlend mode="normal" in="SourceGraphic" in2="effect1_backgroundBlur_454_44" result="shape"/>
</filter>
<filter id="filter8_b_454_44" x="558.384" y="228.689" width="20.1748" height="20.8525" filterUnits="userSpaceOnUse" color-interpolation-filters="sRGB">
<feFlood flood-opacity="0" result="BackgroundImageFix"/>
<feGaussianBlur in="BackgroundImageFix" stdDeviation="1"/>
<feComposite in2="SourceAlpha" operator="in" result="effect1_backgroundBlur_454_44"/>
<feBlend mode="normal" in="SourceGraphic" in2="effect1_backgroundBlur_454_44" result="shape"/>
</filter>
</defs>
</svg>
