<svg width="139" height="28" viewBox="0 0 139 28" fill="none" xmlns="http://www.w3.org/2000/svg">
<path d="M53.5246 1H64C65.6569 1 67 2.34315 67 4V4.70559C67 6.36244 65.6569 7.70559 64 7.70559H58.5486C57.9963 7.70559 57.5486 8.1533 57.5486 8.70559V9.27851V10.5464C57.5486 11.0986 57.9963 11.5464 58.5486 11.5464H63.0187C64.6756 11.5464 66.0187 12.8895 66.0187 14.5464V14.6674C66.0187 16.3242 64.6756 17.6674 63.0187 17.6674H58.5486C57.9963 17.6674 57.5486 18.1151 57.5486 18.6674V19.8444C57.5486 20.3967 57.9963 20.8444 58.5486 20.8444H63.6166C65.2735 20.8444 66.6166 22.1875 66.6166 23.8444V24C66.6166 25.6569 65.2735 27 63.6166 27H53.5246C51.8677 27 50.5246 25.6569 50.5246 24V4C50.5246 2.34315 51.8677 1 53.5246 1Z" fill="#2D3F58"/>
<path d="M26.3607 24V4C26.3607 2.34315 27.7038 1 29.3607 1H30.6048C32.2617 1 33.6048 2.34315 33.6048 4V10.1019C33.6048 10.6542 34.0525 11.1019 34.6048 11.1019H38.2643C38.8166 11.1019 39.2643 10.6542 39.2643 10.1019V4C39.2643 2.34315 40.6074 1 42.2643 1H43.1311C44.788 1 46.1311 2.34315 46.1311 4V24C46.1311 25.6569 44.788 27 43.1311 27H42.2643C40.6074 27 39.2643 25.6569 39.2643 24V19.3885C39.2643 18.8363 38.8166 18.3885 38.2643 18.3885H34.6048C34.0525 18.3885 33.6048 18.8363 33.6048 19.3885V24C33.6048 25.6569 32.2617 27 30.6048 27H29.3607C27.7038 27 26.3607 25.6569 26.3607 24Z" fill="#2D3F58"/>
<path d="M21.4012 1H3C1.34315 1 0 2.34315 0 4V4.96494C0 6.62179 1.34315 7.96494 3 7.96494H7.78689C8.33917 7.96494 8.78689 8.41265 8.78689 8.96494V24C8.78689 25.6569 10.13 27 11.7869 27H12.377C14.0339 27 15.377 25.6569 15.377 24V8.96494C15.377 8.41265 15.8248 7.96494 16.3771 7.96494H21.4012C23.0581 7.96494 24.4012 6.62179 24.4012 4.96494V4C24.4012 2.34315 23.0581 1 21.4012 1Z" fill="#2D3F58"/>
<path d="M125.878 0.636364H135.553C137.457 0.636364 139 2.17945 139 4.08294C139 5.98643 137.457 7.52952 135.553 7.52952H129.715C128.822 7.52952 128.098 8.25344 128.098 9.14644V10.082C128.098 10.8528 128.723 11.4777 129.494 11.4777H134.722C136.46 11.4777 137.868 12.8863 137.868 14.6238C137.868 16.3614 136.46 17.77 134.722 17.77H129.494C128.723 17.77 128.098 18.3948 128.098 19.1657V19.8053C128.098 20.4849 128.649 21.0358 129.329 21.0358H135.394C137.141 21.0358 138.558 22.4523 138.558 24.1997C138.558 25.9471 137.141 27.3636 135.394 27.3636L124.404 27.3636C122.319 27.3636 120.63 25.6738 120.63 23.5893V5.88504C120.63 2.98628 122.98 0.636364 125.878 0.636364Z" fill="#2D3F58"/>
<path d="M99.7317 8.51616L98.682 4.66719C98.5725 4.26572 98.726 3.8334 99.0708 3.60038C107.77 -2.27895 114.552 2.77384 115.443 5.56194C117.5 12 114.387 18.4808 110.5 21.3779H115.037C115.589 21.3779 116.037 21.8256 116.037 22.3779V26.5C116.037 27.0523 115.589 27.5 115.037 27.5H102.135C101.583 27.5 101.135 27.0523 101.135 26.5V21.9155C101.135 21.5798 101.307 21.2661 101.583 21.0764C104.899 18.804 105.936 17.1482 106.514 15.9021L106.539 15.8484C107.125 14.5857 107.746 13.246 107.712 11.857C107.607 7.59696 103.529 8.47434 100.976 9.21089C100.438 9.36611 99.879 9.05637 99.7317 8.51616Z" fill="#2D3F58"/>
<path d="M77 25.3636V2C77 0.895431 77.8954 0 79 0H93.2584C94.363 0 95.2584 0.895432 95.2584 2V5.31818C95.2584 6.42275 94.363 7.31818 93.2584 7.31818H85.912C85.3597 7.31818 84.912 7.7659 84.912 8.31818V11.3295C84.912 11.8818 85.3597 12.3295 85.912 12.3295H91.4325C92.5371 12.3295 93.4325 13.225 93.4325 14.3295V16.7727C93.4325 17.8773 92.5371 18.7727 91.4325 18.7727H85.912C85.3597 18.7727 84.912 19.2204 84.912 19.7727V26.3636C84.912 26.9159 84.4643 27.3636 83.912 27.3636H79C77.8954 27.3636 77 26.4682 77 25.3636Z" fill="#2D3F58"/>
</svg>
