<svg width="199" height="219" viewBox="0 0 199 219" fill="none" xmlns="http://www.w3.org/2000/svg">
<path d="M7.02168 24.9304L4.37044 18.9605C2.31479 14.3317 5.70321 9.11938 10.7679 9.11938H188.749C193.677 9.11938 197.063 14.077 195.269 18.6674L192.455 25.866C191.141 29.2301 190.466 32.8101 190.466 36.4219V195.36C192.949 216.823 167.191 216.988 155.554 216.884H34.5244C0.629747 218.757 4.26706 197.439 5.04289 190.367L9.5054 37.5473C9.63209 33.2088 8.78332 28.8972 7.02168 24.9304Z" fill="#F1F1F1" stroke="#D9D9D9" stroke-opacity="0.4" stroke-width="4"/>
<path d="M39.3856 62.7422H29.8022C25.9362 62.7422 22.8022 65.8762 22.8022 69.7422V168.497C22.8022 172.363 25.9363 175.497 29.8022 175.497H39.3856" stroke="white" stroke-opacity="0.7" stroke-width="5"/>
<path d="M23.4932 139.871H40.0765" stroke="white" stroke-opacity="0.7" stroke-width="5"/>
<path d="M23.4932 100.572H39.04" stroke="white" stroke-opacity="0.7" stroke-width="5"/>
<path d="M196.448 12.1607C196.448 9.54958 193.098 4.48205 178.308 2.85206C160.591 0.899624 130.547 -0.000119388 101.46 -0.000119388C73.4364 -0.000119388 39.7334 0.673803 24.2171 3.70645C13.9203 5.71897 4.82162 7.83111 4.82178 11.5113C4.82178 17.2501 48.088 21.9023 101.46 21.9023C154.831 21.9023 196.448 17.8995 196.448 12.1607Z" fill="#C8C8C8"/>
<path d="M177.58 39.3698C177.58 41.7301 175.409 43.6436 173.316 43.6436C171.222 43.6436 169.288 41.7301 169.288 39.3698C169.288 37.0094 171.933 34.8289 174.026 34.8289C176.12 34.8289 177.58 37.0094 177.58 39.3698Z" fill="white" fill-opacity="0.8"/>
<rect x="169.979" y="50.2546" width="6.90972" height="41.1354" rx="3.45486" fill="white" fill-opacity="0.7"/>
<path d="M186.985 207.373C186.985 209.468 183.883 213.535 170.188 214.843C153.784 216.41 125.965 215.538 99.0324 215.538C73.085 215.538 43.2521 215.538 26.6547 215.538C16.8822 215.538 9.55283 210.847 9.55298 207.894C9.55298 203.289 49.6143 199.556 99.0324 199.556C148.451 199.556 186.985 202.768 186.985 207.373Z" fill="#C8C8C8" fill-opacity="0.5"/>
<path d="M138.391 120.636C139.906 121.347 141.325 122.268 142.653 123.314C163.23 139.515 175.991 157.791 176.686 185.261C177.048 199.578 164.708 209.594 150.89 209.631C143.771 209.65 136.399 209.67 128.103 209.692C104.882 209.755 95.5333 209.78 74.7158 209.836C53.8983 209.893 26.2047 213.777 23.519 194.69C21.3212 179.07 23.2274 162.693 37.9548 144.655C48.3998 131.862 59.0886 122.55 74.9384 117.308C93.5425 111.155 120.372 112.178 138.391 120.636Z" fill="#96F0FE"/>
<path d="M124.59 123.48C126.105 124.166 127.513 125.083 128.83 126.127C147.785 141.154 159.677 159.602 160.763 185.257C161.371 199.619 148.962 209.679 135.096 209.679C128.892 209.679 122.444 209.679 115.258 209.679C93.4597 209.679 84.6838 209.679 65.1416 209.679C45.5994 209.68 19.6108 213.243 17.0466 195.386C14.9481 180.773 16.7006 165.463 30.4851 148.632C40.2614 136.695 50.2745 128.013 65.1416 123.151C82.5481 117.458 107.657 115.81 124.59 123.48Z" fill="#96F0FE" fill-opacity="0.05"/>
<path d="M131.89 119.436C133.385 120.129 134.783 121.036 136.092 122.064C156.942 138.435 170.327 158.082 171.394 186.028C171.945 200.463 159.485 210.576 145.55 210.52C138.408 210.492 131.011 210.463 122.691 210.43C99.3052 210.338 89.8902 210.3 68.9252 210.218C47.9601 210.135 20.0929 213.825 17.2741 194.766C14.9672 179.169 16.7889 162.843 31.5131 144.947C41.9558 132.254 52.6649 123.036 68.596 117.912C87.3129 111.892 113.742 111.022 131.89 119.436Z" fill="#EDFDFF" fill-opacity="0.29"/>
<path d="M69.7829 129.994C72.6237 123.944 80.7504 121.643 84.3558 129.202C88.8624 138.651 65.553 141.677 69.7829 129.994Z" fill="white" fill-opacity="0.3"/>
<path d="M37.6316 159.337C39.8173 142.78 55.7674 129.424 68.3874 142.939C84.1623 159.833 36.1053 190.05 37.6316 159.337Z" fill="white" fill-opacity="0.3"/>
<ellipse cx="71.2942" cy="175.398" rx="4.32353" ry="4.56766" fill="#2D3F58" fill-opacity="0.6"/>
<ellipse cx="127.5" cy="175.398" rx="4.32353" ry="4.56766" fill="#2D3F58" fill-opacity="0.6"/>
<line y1="-1" x2="21.1274" y2="-1" transform="matrix(0.944562 -0.328334 0.297353 0.954768 52.5588 166.348)" stroke="#2D3F58" stroke-opacity="0.6" stroke-width="2"/>
<line y1="-1" x2="21.1678" y2="-1" transform="matrix(-0.925165 -0.379565 0.345013 -0.938598 147.804 165.924)" stroke="#2D3F58" stroke-opacity="0.6" stroke-width="2"/>
<line x1="90.75" y1="197.998" x2="107.432" y2="197.998" stroke="#2D3F58" stroke-opacity="0.6" stroke-width="2"/>
</svg>
