<svg width="201" height="282" viewBox="0 0 201 282" fill="none" xmlns="http://www.w3.org/2000/svg">
<path d="M7.653 82.7312L4.77516 76.1348C2.75778 71.5108 6.14616 66.3357 11.1911 66.3357H190.314C195.225 66.3357 198.609 71.2602 196.849 75.8446L193.85 83.6575C192.576 86.9749 191.923 90.4981 191.923 94.0516V256.868C194.418 278.825 168.531 278.994 156.835 278.888H35.1979C1.13291 280.804 4.7885 258.994 5.56823 251.76L10.0606 95.1592C10.1831 90.8898 9.36096 86.646 7.653 82.7312Z" fill="#F1F1F1" stroke="#D9D9D9" stroke-opacity="0.4" stroke-width="4"/>
<path d="M40.0834 121.194H30.4167C26.5508 121.194 23.4167 124.328 23.4167 128.194V229.547C23.4167 233.413 26.5508 236.547 30.4167 236.547H40.0834" stroke="white" stroke-opacity="0.7" stroke-width="5"/>
<path d="M24.1111 200.1H40.7777" stroke="white" stroke-opacity="0.7" stroke-width="5"/>
<path d="M24.1111 159.896H39.7361" stroke="white" stroke-opacity="0.7" stroke-width="5"/>
<path d="M196.655 69.4475C196.655 66.7762 193.289 61.5919 178.424 59.9243C160.619 57.9269 130.424 57.0064 101.19 57.0064C73.0258 57.0064 39.1535 57.6959 23.5592 60.7984C13.2106 62.8573 4.06624 65.0181 4.06641 68.7831C4.06641 74.6541 47.55 79.4136 101.19 79.4136C154.83 79.4136 196.655 75.3185 196.655 69.4475Z" fill="#C8C8C8"/>
<path d="M178.972 97.2835C178.972 99.6982 176.79 101.656 174.687 101.656C172.583 101.656 170.639 99.6982 170.639 97.2835C170.639 94.8687 173.297 92.6379 175.401 92.6379C177.505 92.6379 178.972 94.8687 178.972 97.2835Z" fill="white" fill-opacity="0.8"/>
<rect x="171.333" y="108.419" width="6.94444" height="42.0832" rx="3.47222" fill="white" fill-opacity="0.7"/>
<path d="M188.424 269.158C188.424 271.301 185.307 275.462 171.543 276.8C155.057 278.403 127.099 277.511 100.03 277.511C73.9524 277.511 43.9696 277.511 27.2887 277.511C17.4671 277.511 10.1009 272.712 10.1011 269.691C10.1011 264.979 50.3637 261.16 100.03 261.16C149.697 261.16 188.424 264.446 188.424 269.158Z" fill="#C8C8C8" fill-opacity="0.5"/>
<path d="M143.166 170.584C144.723 171.331 146.184 172.328 147.543 173.446C170.316 192.171 184.158 213.366 184.043 245.835C183.992 260.125 172.268 269.966 158.859 270.003C150.495 270.027 141.893 270.051 132.082 270.079C107.261 270.149 97.2689 270.177 75.0176 270.24C52.7663 270.304 23.1651 274.646 20.2945 253.309C17.9453 235.848 19.9828 217.541 35.7245 197.377C46.0516 184.149 61.4666 169.407 74.8011 170.04C76.9422 170.142 79.0211 170.98 81.0575 171.787C116.224 185.738 118.931 158.955 143.166 170.584Z" fill="#96F0FE"/>
<path d="M128.447 173.763C129.984 174.497 131.416 175.471 132.754 176.578C153.792 193.985 166.719 215.495 167.071 245.83C167.238 260.179 155.443 270.064 141.987 270.064C134.605 270.064 126.976 270.064 118.352 270.064C95.0526 270.064 85.6722 270.064 64.7839 270.064C43.8957 270.065 16.1171 274.047 13.3763 254.087C11.1333 237.752 13.0064 220.637 27.7404 201.822C38.1901 188.479 48.8928 178.774 64.784 173.339C83.4302 166.961 110.345 165.124 128.447 173.763Z" fill="#96F0FE" fill-opacity="0.05"/>
<path d="M138.502 170.413C162.743 189.647 178.133 212.829 178.424 246.72C178.548 261.139 166.699 271.071 153.174 271.014C144.778 270.98 136.142 270.944 126.297 270.903C101.301 270.8 91.2372 270.758 68.8282 270.666C46.4191 270.574 16.6325 274.699 13.6194 253.394C11.1536 235.958 13.1009 217.709 28.8392 197.703C40.0012 183.515 51.4479 173.21 68.4762 167.483C116.418 186.641 118.729 156.005 138.502 170.413Z" fill="#EDFDFF" fill-opacity="0.29"/>
<path d="M61.8737 185.925C64.9102 179.162 73.5967 176.591 77.4504 185.041C82.2674 195.603 57.3525 198.985 61.8737 185.925Z" fill="white" fill-opacity="0.3"/>
<path d="M30.9828 217.339C33.2216 200.878 48.0777 187.37 59.4998 200.576C73.7775 217.082 29.1554 247.833 30.9828 217.339Z" fill="white" fill-opacity="0.3"/>
<line x1="55.9558" y1="240.104" x2="83.7993" y2="240.104" stroke="#2D3F58" stroke-opacity="0.6" stroke-width="2"/>
<line x1="125.276" y1="240.104" x2="153.119" y2="240.104" stroke="#2D3F58" stroke-opacity="0.6" stroke-width="2"/>
<path d="M95.2371 256.848H114.608" stroke="#2D3F58" stroke-opacity="0.6" stroke-width="2"/>
<path d="M118.55 170.641C106.904 178.279 92.2044 175.788 84.4562 172.971L84.4279 172.961C82.8812 172.398 81.0694 171.739 79.7245 172.682C77.7482 174.067 80.2402 177.227 82.1282 178.95C94.1569 187.932 111.466 183.106 120.822 178.573C122.66 177.683 124.093 176.08 124.607 174.104C126.418 167.149 121.55 168.724 118.55 170.641Z" fill="#7CEDFF"/>
<circle cx="101" cy="167.006" r="13" fill="#687587"/>
<path d="M71 47.0063L51.5 26.0063C73.1876 1.7265 88.4852 0.0800943 103.543 0.00324915C107.091 -0.014859 110.659 0.320563 114.062 1.32621C142.469 9.72131 150 32.205 150 44.3221C149.473 60.8191 136.821 74.9362 131.022 81.7868C115.207 99.3696 110.989 106.428 110.989 110.564V139.006H87.2663V110.564C87.2663 106.428 86.8137 97.6886 89.375 94.818C93.0652 90.6822 103.082 81.7868 115.207 64.6199C126 51.0063 118 35.2413 108.88 31.0063C89.5 22.0063 78.3804 37.414 71 47.0063Z" fill="#687587"/>
</svg>
