<svg width="312" height="312" viewBox="0 0 312 312" fill="none" xmlns="http://www.w3.org/2000/svg">
<path d="M288.883 48.2741C304.369 48.6018 309.413 62.6075 310 69.5694V246.484C309.155 268.106 295.5 268.188 288.883 268.188H269.526M288.883 48.2741H227.997M288.883 48.2741C286.349 39.1008 281.023 36.8075 278.677 36.8075H261M227.997 48.2741H19.2931C14.6005 48.2741 4.58176 51.3046 2.04774 63.4265V246.484C1.57848 254.265 4.37058 269.499 19.2931 268.188H41.8176M227.997 48.2741C229.053 45.1345 232.502 38.4456 237.851 36.8075H255M255 36.8075H258.264M255 36.8075L241.824 4.51857C241.405 3.49327 242.062 2.34777 243.158 2.19063V2.19063C243.938 2.07885 244.692 2.51669 244.982 3.24911L258.264 36.8075M258.264 36.8075L270.497 3.0544C270.717 2.44683 271.346 2.08906 271.981 2.21016V2.21016C272.777 2.36211 273.248 3.19137 272.97 3.95327L261 36.8075M258.264 36.8075H261M41.8176 268.188L37.3675 302.878C37.2525 303.775 37.1715 304.699 37.4527 305.558C38.7368 309.482 44.3278 311.644 48.2891 307.856C49.5044 306.694 50.0238 305.018 50.3347 303.365L56.9512 268.188M41.8176 268.188H56.9512M41.8176 268.188H253.689M56.9512 268.188H253.689M253.689 268.188L259.319 301.196C259.754 303.743 260.49 306.357 262.435 308.056C264.527 309.883 267.43 310.954 270.55 308.822C273.309 306.937 273.83 303.223 273.423 299.907L269.526 268.188M253.689 268.188H269.526" stroke="#2D3F58" stroke-width="4"/>
<path d="M19 86C19 76.6112 26.6112 69 36 69H215C224.389 69 232 76.6112 232 86V230C232 239.389 224.389 247 215 247H36C26.6112 247 19 239.389 19 230V86Z" stroke="#2D3F58" stroke-width="4"/>
<circle cx="273" cy="150" r="10" fill="#2D3F58"/>
<circle cx="273" cy="185" r="10" fill="#2D3F58"/>
<circle cx="273" cy="221" r="10" fill="#2D3F58"/>
<rect x="253" y="77" width="40" height="6" rx="3" fill="#2D3F58"/>
<rect x="253" y="95" width="40" height="6" rx="3" fill="#2D3F58"/>
<rect x="253" y="113" width="40" height="6" rx="3" fill="#2D3F58"/>
<path d="M62.836 111.876V116.016H93.616V111.876H62.836ZM71.296 120.732V124.764H85.732V120.732H71.296ZM69.532 130.452V134.448H84.58V130.452H69.532ZM61.756 139.128V143.304H94.66V139.128H61.756ZM70.684 115.188C69.676 121.416 67.876 129.408 66.364 134.448H71.224C72.52 129.624 74.212 121.632 75.436 115.188H70.684ZM84.256 120.732V121.2C83.824 125.556 82.672 133.872 81.556 140.028L86.056 140.46C87.064 134.304 88.216 126.564 88.792 120.948L85.48 120.588L84.724 120.732H84.256ZM103.588 133.728V136.788H120.4V133.728H103.588ZM102.76 116.592V119.724H120.76V116.592H102.76ZM109.924 114.036V139.848H113.812V114.036H109.924ZM102.58 139.452L103.084 143.052C107.764 142.62 114.316 141.972 120.436 141.324L120.4 138.048C113.92 138.624 107.044 139.128 102.58 139.452ZM107.152 127.968H116.656V129.624H107.152V127.968ZM107.152 123.828H116.656V125.448H107.152V123.828ZM103.696 121.128V132.324H120.22V121.128H103.696ZM118.456 110.616C114.496 111.48 108.232 112.128 102.868 112.38C103.264 113.208 103.66 114.576 103.804 115.44C109.204 115.332 115.756 114.792 120.364 113.856L118.456 110.616ZM120.76 118.572V122.532H133.216V118.572H120.76ZM131.488 118.572V119.508C131.2 133.44 130.912 138.516 130.084 139.596C129.76 140.1 129.4 140.208 128.86 140.208C128.14 140.208 126.772 140.208 125.224 140.064C125.908 141.216 126.376 142.98 126.484 144.168C128.176 144.24 129.868 144.24 130.984 144.024C132.172 143.808 133 143.412 133.792 142.188C134.98 140.568 135.268 135.312 135.592 120.48C135.592 119.976 135.628 118.572 135.628 118.572H131.488ZM124.216 111.048C124.18 125.412 124.576 135.492 116.98 141.288C117.952 142.008 119.356 143.484 119.968 144.528C128.284 137.976 128.32 126.42 128.356 111.048H124.216ZM168.568 112.812C170.224 114 172.24 115.8 173.176 117.024L176.2 114.432C175.192 113.244 173.068 111.552 171.448 110.436L168.568 112.812ZM144.736 116.556V120.768H177.136V116.556H144.736ZM146.068 124.908V129.084H161.656V124.908H146.068ZM151.54 127.284V139.488H155.86V127.284H151.54ZM144.7 138.876L145.924 143.232C150.604 142.26 156.976 140.928 162.916 139.632L162.592 135.78C156.112 137.004 149.056 138.228 144.7 138.876ZM162.412 110.58C162.448 127.248 164.716 144.276 172.528 144.276C175.948 144.276 177.424 142.584 178.072 135.708C176.848 135.276 175.264 134.232 174.292 133.224C174.076 137.76 173.68 139.74 172.888 139.74C169.468 139.74 166.732 125.376 167.056 110.58H162.412ZM65.608 170.484C65.356 172.176 64.744 174.696 64.24 176.316L66.652 177C67.228 175.524 67.876 173.256 68.56 171.204L65.608 170.484ZM59.308 171.204C59.956 172.716 60.532 174.732 60.676 176.064L63.268 175.164C63.052 173.868 62.44 171.888 61.756 170.412L59.308 171.204ZM54.196 165.984V198.276H58.048V169.728H70.756V165.984H54.196ZM69.64 165.984V193.992C69.64 194.46 69.496 194.604 69.028 194.64C68.56 194.64 67.192 194.676 65.932 194.604C66.436 195.576 66.904 197.232 67.012 198.24C69.316 198.24 70.9 198.168 72.052 197.556C73.168 196.908 73.492 195.936 73.492 194.028V165.984H69.64ZM58.696 175.884V179.124H68.92V175.884H58.696ZM58.84 182.148V185.388H68.776V182.148H58.84ZM61.612 179.808C62.044 180.708 62.512 181.968 62.728 182.76L65.788 181.644C65.572 180.888 65.032 179.736 64.564 178.872L61.612 179.808ZM49.156 179.772C49.984 181.968 50.956 184.92 51.28 186.684L54.304 185.424C53.836 183.768 52.828 180.888 51.928 178.728L49.156 179.772ZM45.628 188.664C45.988 191.076 46.348 194.208 46.384 196.296L49.408 195.504C49.264 193.416 48.904 190.356 48.436 187.98L45.628 188.664ZM41.704 188.196C41.524 191.112 41.128 194.352 40.336 196.44C41.128 196.656 42.604 197.16 43.324 197.556C44.044 195.324 44.584 191.94 44.836 188.736L41.704 188.196ZM41.632 178.728C41.632 178.044 43.756 176.856 43.756 176.856V176.784C45.988 173.976 48.328 169.836 49.948 165.984L46.492 164.508C45.304 168.324 43.108 172.32 42.388 173.364C41.704 174.408 41.092 175.092 40.444 175.272C40.876 176.244 41.452 178.008 41.632 178.728ZM41.632 178.728C42.28 178.404 43.36 178.152 48.796 177.612C48.832 176.82 48.976 175.452 49.192 174.48L43.144 174.912L41.56 175.992L41.632 178.728ZM41.884 187.08C41.884 186.396 44.044 185.244 44.044 185.244V185.172C47.428 181.5 50.956 176.424 53.44 171.528L50.308 169.476C48.148 174.552 44.584 179.808 43.432 181.14C42.316 182.508 41.596 183.372 40.732 183.588C41.128 184.56 41.74 186.36 41.884 187.08ZM41.884 187.08C42.676 186.648 44.008 186.288 52.288 184.992C52.252 184.236 52.324 182.832 52.432 181.896L43.288 183.156L41.74 184.272L41.884 187.08ZM49.444 187.836C50.164 189.996 50.992 192.876 51.316 194.784L54.124 193.704C53.728 191.868 52.9 189.096 52.108 186.9L49.444 187.836ZM59.92 183.912V187.548C59.92 190.428 60.568 191.616 63.628 191.616C64.168 191.616 66.04 191.616 66.652 191.616C67.444 191.616 68.38 191.58 68.884 191.4C68.776 190.572 68.704 189.348 68.632 188.448C68.092 188.628 67.12 188.664 66.544 188.664C66.076 188.664 64.456 188.664 64.024 188.664C63.448 188.664 63.34 188.376 63.34 187.584V183.912H59.92ZM91.168 180.564H106.54V182.544H91.168V180.564ZM91.168 185.64H106.54V187.656H91.168V185.64ZM91.168 175.488H106.54V177.468H91.168V175.488ZM86.632 172.212V190.932H111.256V172.212H86.632ZM100.528 193.56C104.524 194.928 108.664 196.908 111.04 198.24L115.36 195.36C112.588 194.028 107.872 192.12 103.768 190.752L100.528 193.56ZM83.572 166.092V170.016H113.776V166.092H83.572ZM96.46 168C96.352 169.692 95.92 172.032 95.524 173.688L99.7 174.372C100.276 172.896 101.032 170.772 101.716 168.54L96.46 168ZM93.328 190.5C90.844 192.048 85.984 193.92 82.168 194.892C83.176 195.792 84.436 197.268 85.156 198.204C88.936 197.16 93.832 195.252 97.072 193.452L93.328 190.5ZM125.08 175.416V178.692H136.168V175.416H125.08ZM125.08 180.312V183.552H136.24V180.312H125.08ZM123.568 170.412V173.832H137.68V170.412H123.568ZM127.024 185.28V188.736H132.46V192.768H127.024V196.224H136.204V185.28H127.024ZM125.116 185.28V197.772H128.788V185.28H125.116ZM127.204 165.876C128.104 167.424 129.22 169.62 129.724 170.988L133.216 169.08C132.64 167.748 131.524 165.768 130.552 164.256L127.204 165.876ZM140.92 165.588V169.584H150.532V165.588H140.92ZM137.068 180.06V184.092H152.908V180.06H137.068ZM151.396 180.06V180.708C149.38 188.196 143.44 192.66 135.736 194.316C136.492 195.252 137.428 197.052 137.86 198.168C146.5 195.792 152.98 190.86 155.608 181.032L152.908 179.916L152.188 180.06H151.396ZM141.784 183.66L138.076 184.92C141.46 191.688 146.824 196.152 154.672 198.096C155.212 196.908 156.4 195.072 157.336 194.136C149.92 192.696 144.448 188.952 141.784 183.66ZM140.128 165.588V169.476C140.128 171.888 139.696 174.516 135.736 176.46C136.492 177.072 138.004 178.764 138.508 179.628C143.08 177.18 144.088 173.148 144.088 169.62V165.588H140.128ZM148.372 165.588V173.436C148.372 177.036 149.056 178.548 152.44 178.548C152.944 178.548 153.844 178.548 154.312 178.548C155.068 178.548 155.86 178.512 156.364 178.26C156.184 177.288 156.112 175.776 156.076 174.696C155.608 174.84 154.78 174.948 154.312 174.948C153.988 174.948 153.16 174.948 152.836 174.948C152.404 174.948 152.368 174.516 152.368 173.472V165.588H148.372ZM167.2 175.416V178.692H179.332V175.416H167.2ZM167.2 180.312V183.552H179.296V180.312H167.2ZM165.616 170.412V173.832H180.844V170.412H165.616ZM169.216 185.28V188.736H175.66V192.768H169.216V196.224H179.368V185.28H169.216ZM167.344 185.28V197.772H170.98V185.28H167.344ZM169.612 165.876C170.512 167.424 171.664 169.62 172.132 170.988L175.588 169.08C175.012 167.748 173.932 165.768 172.96 164.256L169.612 165.876ZM180.736 176.424V180.672H198.232V176.424H180.736ZM187.036 165.084V198.24H191.536V165.084H187.036Z" fill="#FFDC62"/>
<path d="M68.836 111.876V116.016H99.616V111.876H68.836ZM77.296 120.732V124.764H91.732V120.732H77.296ZM75.532 130.452V134.448H90.58V130.452H75.532ZM67.756 139.128V143.304H100.66V139.128H67.756ZM76.684 115.188C75.676 121.416 73.876 129.408 72.364 134.448H77.224C78.52 129.624 80.212 121.632 81.436 115.188H76.684ZM90.256 120.732V121.2C89.824 125.556 88.672 133.872 87.556 140.028L92.056 140.46C93.064 134.304 94.216 126.564 94.792 120.948L91.48 120.588L90.724 120.732H90.256ZM109.588 133.728V136.788H126.4V133.728H109.588ZM108.76 116.592V119.724H126.76V116.592H108.76ZM115.924 114.036V139.848H119.812V114.036H115.924ZM108.58 139.452L109.084 143.052C113.764 142.62 120.316 141.972 126.436 141.324L126.4 138.048C119.92 138.624 113.044 139.128 108.58 139.452ZM113.152 127.968H122.656V129.624H113.152V127.968ZM113.152 123.828H122.656V125.448H113.152V123.828ZM109.696 121.128V132.324H126.22V121.128H109.696ZM124.456 110.616C120.496 111.48 114.232 112.128 108.868 112.38C109.264 113.208 109.66 114.576 109.804 115.44C115.204 115.332 121.756 114.792 126.364 113.856L124.456 110.616ZM126.76 118.572V122.532H139.216V118.572H126.76ZM137.488 118.572V119.508C137.2 133.44 136.912 138.516 136.084 139.596C135.76 140.1 135.4 140.208 134.86 140.208C134.14 140.208 132.772 140.208 131.224 140.064C131.908 141.216 132.376 142.98 132.484 144.168C134.176 144.24 135.868 144.24 136.984 144.024C138.172 143.808 139 143.412 139.792 142.188C140.98 140.568 141.268 135.312 141.592 120.48C141.592 119.976 141.628 118.572 141.628 118.572H137.488ZM130.216 111.048C130.18 125.412 130.576 135.492 122.98 141.288C123.952 142.008 125.356 143.484 125.968 144.528C134.284 137.976 134.32 126.42 134.356 111.048H130.216ZM174.568 112.812C176.224 114 178.24 115.8 179.176 117.024L182.2 114.432C181.192 113.244 179.068 111.552 177.448 110.436L174.568 112.812ZM150.736 116.556V120.768H183.136V116.556H150.736ZM152.068 124.908V129.084H167.656V124.908H152.068ZM157.54 127.284V139.488H161.86V127.284H157.54ZM150.7 138.876L151.924 143.232C156.604 142.26 162.976 140.928 168.916 139.632L168.592 135.78C162.112 137.004 155.056 138.228 150.7 138.876ZM168.412 110.58C168.448 127.248 170.716 144.276 178.528 144.276C181.948 144.276 183.424 142.584 184.072 135.708C182.848 135.276 181.264 134.232 180.292 133.224C180.076 137.76 179.68 139.74 178.888 139.74C175.468 139.74 172.732 125.376 173.056 110.58H168.412ZM71.608 170.484C71.356 172.176 70.744 174.696 70.24 176.316L72.652 177C73.228 175.524 73.876 173.256 74.56 171.204L71.608 170.484ZM65.308 171.204C65.956 172.716 66.532 174.732 66.676 176.064L69.268 175.164C69.052 173.868 68.44 171.888 67.756 170.412L65.308 171.204ZM60.196 165.984V198.276H64.048V169.728H76.756V165.984H60.196ZM75.64 165.984V193.992C75.64 194.46 75.496 194.604 75.028 194.64C74.56 194.64 73.192 194.676 71.932 194.604C72.436 195.576 72.904 197.232 73.012 198.24C75.316 198.24 76.9 198.168 78.052 197.556C79.168 196.908 79.492 195.936 79.492 194.028V165.984H75.64ZM64.696 175.884V179.124H74.92V175.884H64.696ZM64.84 182.148V185.388H74.776V182.148H64.84ZM67.612 179.808C68.044 180.708 68.512 181.968 68.728 182.76L71.788 181.644C71.572 180.888 71.032 179.736 70.564 178.872L67.612 179.808ZM55.156 179.772C55.984 181.968 56.956 184.92 57.28 186.684L60.304 185.424C59.836 183.768 58.828 180.888 57.928 178.728L55.156 179.772ZM51.628 188.664C51.988 191.076 52.348 194.208 52.384 196.296L55.408 195.504C55.264 193.416 54.904 190.356 54.436 187.98L51.628 188.664ZM47.704 188.196C47.524 191.112 47.128 194.352 46.336 196.44C47.128 196.656 48.604 197.16 49.324 197.556C50.044 195.324 50.584 191.94 50.836 188.736L47.704 188.196ZM47.632 178.728C47.632 178.044 49.756 176.856 49.756 176.856V176.784C51.988 173.976 54.328 169.836 55.948 165.984L52.492 164.508C51.304 168.324 49.108 172.32 48.388 173.364C47.704 174.408 47.092 175.092 46.444 175.272C46.876 176.244 47.452 178.008 47.632 178.728ZM47.632 178.728C48.28 178.404 49.36 178.152 54.796 177.612C54.832 176.82 54.976 175.452 55.192 174.48L49.144 174.912L47.56 175.992L47.632 178.728ZM47.884 187.08C47.884 186.396 50.044 185.244 50.044 185.244V185.172C53.428 181.5 56.956 176.424 59.44 171.528L56.308 169.476C54.148 174.552 50.584 179.808 49.432 181.14C48.316 182.508 47.596 183.372 46.732 183.588C47.128 184.56 47.74 186.36 47.884 187.08ZM47.884 187.08C48.676 186.648 50.008 186.288 58.288 184.992C58.252 184.236 58.324 182.832 58.432 181.896L49.288 183.156L47.74 184.272L47.884 187.08ZM55.444 187.836C56.164 189.996 56.992 192.876 57.316 194.784L60.124 193.704C59.728 191.868 58.9 189.096 58.108 186.9L55.444 187.836ZM65.92 183.912V187.548C65.92 190.428 66.568 191.616 69.628 191.616C70.168 191.616 72.04 191.616 72.652 191.616C73.444 191.616 74.38 191.58 74.884 191.4C74.776 190.572 74.704 189.348 74.632 188.448C74.092 188.628 73.12 188.664 72.544 188.664C72.076 188.664 70.456 188.664 70.024 188.664C69.448 188.664 69.34 188.376 69.34 187.584V183.912H65.92ZM97.168 180.564H112.54V182.544H97.168V180.564ZM97.168 185.64H112.54V187.656H97.168V185.64ZM97.168 175.488H112.54V177.468H97.168V175.488ZM92.632 172.212V190.932H117.256V172.212H92.632ZM106.528 193.56C110.524 194.928 114.664 196.908 117.04 198.24L121.36 195.36C118.588 194.028 113.872 192.12 109.768 190.752L106.528 193.56ZM89.572 166.092V170.016H119.776V166.092H89.572ZM102.46 168C102.352 169.692 101.92 172.032 101.524 173.688L105.7 174.372C106.276 172.896 107.032 170.772 107.716 168.54L102.46 168ZM99.328 190.5C96.844 192.048 91.984 193.92 88.168 194.892C89.176 195.792 90.436 197.268 91.156 198.204C94.936 197.16 99.832 195.252 103.072 193.452L99.328 190.5ZM131.08 175.416V178.692H142.168V175.416H131.08ZM131.08 180.312V183.552H142.24V180.312H131.08ZM129.568 170.412V173.832H143.68V170.412H129.568ZM133.024 185.28V188.736H138.46V192.768H133.024V196.224H142.204V185.28H133.024ZM131.116 185.28V197.772H134.788V185.28H131.116ZM133.204 165.876C134.104 167.424 135.22 169.62 135.724 170.988L139.216 169.08C138.64 167.748 137.524 165.768 136.552 164.256L133.204 165.876ZM146.92 165.588V169.584H156.532V165.588H146.92ZM143.068 180.06V184.092H158.908V180.06H143.068ZM157.396 180.06V180.708C155.38 188.196 149.44 192.66 141.736 194.316C142.492 195.252 143.428 197.052 143.86 198.168C152.5 195.792 158.98 190.86 161.608 181.032L158.908 179.916L158.188 180.06H157.396ZM147.784 183.66L144.076 184.92C147.46 191.688 152.824 196.152 160.672 198.096C161.212 196.908 162.4 195.072 163.336 194.136C155.92 192.696 150.448 188.952 147.784 183.66ZM146.128 165.588V169.476C146.128 171.888 145.696 174.516 141.736 176.46C142.492 177.072 144.004 178.764 144.508 179.628C149.08 177.18 150.088 173.148 150.088 169.62V165.588H146.128ZM154.372 165.588V173.436C154.372 177.036 155.056 178.548 158.44 178.548C158.944 178.548 159.844 178.548 160.312 178.548C161.068 178.548 161.86 178.512 162.364 178.26C162.184 177.288 162.112 175.776 162.076 174.696C161.608 174.84 160.78 174.948 160.312 174.948C159.988 174.948 159.16 174.948 158.836 174.948C158.404 174.948 158.368 174.516 158.368 173.472V165.588H154.372ZM173.2 175.416V178.692H185.332V175.416H173.2ZM173.2 180.312V183.552H185.296V180.312H173.2ZM171.616 170.412V173.832H186.844V170.412H171.616ZM175.216 185.28V188.736H181.66V192.768H175.216V196.224H185.368V185.28H175.216ZM173.344 185.28V197.772H176.98V185.28H173.344ZM175.612 165.876C176.512 167.424 177.664 169.62 178.132 170.988L181.588 169.08C181.012 167.748 179.932 165.768 178.96 164.256L175.612 165.876ZM186.736 176.424V180.672H204.232V176.424H186.736ZM193.036 165.084V198.24H197.536V165.084H193.036Z" fill="#96F0FE"/>
<path d="M65.836 111.876V116.016H96.616V111.876H65.836ZM74.296 120.732V124.764H88.732V120.732H74.296ZM72.532 130.452V134.448H87.58V130.452H72.532ZM64.756 139.128V143.304H97.66V139.128H64.756ZM73.684 115.188C72.676 121.416 70.876 129.408 69.364 134.448H74.224C75.52 129.624 77.212 121.632 78.436 115.188H73.684ZM87.256 120.732V121.2C86.824 125.556 85.672 133.872 84.556 140.028L89.056 140.46C90.064 134.304 91.216 126.564 91.792 120.948L88.48 120.588L87.724 120.732H87.256ZM106.588 133.728V136.788H123.4V133.728H106.588ZM105.76 116.592V119.724H123.76V116.592H105.76ZM112.924 114.036V139.848H116.812V114.036H112.924ZM105.58 139.452L106.084 143.052C110.764 142.62 117.316 141.972 123.436 141.324L123.4 138.048C116.92 138.624 110.044 139.128 105.58 139.452ZM110.152 127.968H119.656V129.624H110.152V127.968ZM110.152 123.828H119.656V125.448H110.152V123.828ZM106.696 121.128V132.324H123.22V121.128H106.696ZM121.456 110.616C117.496 111.48 111.232 112.128 105.868 112.38C106.264 113.208 106.66 114.576 106.804 115.44C112.204 115.332 118.756 114.792 123.364 113.856L121.456 110.616ZM123.76 118.572V122.532H136.216V118.572H123.76ZM134.488 118.572V119.508C134.2 133.44 133.912 138.516 133.084 139.596C132.76 140.1 132.4 140.208 131.86 140.208C131.14 140.208 129.772 140.208 128.224 140.064C128.908 141.216 129.376 142.98 129.484 144.168C131.176 144.24 132.868 144.24 133.984 144.024C135.172 143.808 136 143.412 136.792 142.188C137.98 140.568 138.268 135.312 138.592 120.48C138.592 119.976 138.628 118.572 138.628 118.572H134.488ZM127.216 111.048C127.18 125.412 127.576 135.492 119.98 141.288C120.952 142.008 122.356 143.484 122.968 144.528C131.284 137.976 131.32 126.42 131.356 111.048H127.216ZM171.568 112.812C173.224 114 175.24 115.8 176.176 117.024L179.2 114.432C178.192 113.244 176.068 111.552 174.448 110.436L171.568 112.812ZM147.736 116.556V120.768H180.136V116.556H147.736ZM149.068 124.908V129.084H164.656V124.908H149.068ZM154.54 127.284V139.488H158.86V127.284H154.54ZM147.7 138.876L148.924 143.232C153.604 142.26 159.976 140.928 165.916 139.632L165.592 135.78C159.112 137.004 152.056 138.228 147.7 138.876ZM165.412 110.58C165.448 127.248 167.716 144.276 175.528 144.276C178.948 144.276 180.424 142.584 181.072 135.708C179.848 135.276 178.264 134.232 177.292 133.224C177.076 137.76 176.68 139.74 175.888 139.74C172.468 139.74 169.732 125.376 170.056 110.58H165.412ZM68.608 170.484C68.356 172.176 67.744 174.696 67.24 176.316L69.652 177C70.228 175.524 70.876 173.256 71.56 171.204L68.608 170.484ZM62.308 171.204C62.956 172.716 63.532 174.732 63.676 176.064L66.268 175.164C66.052 173.868 65.44 171.888 64.756 170.412L62.308 171.204ZM57.196 165.984V198.276H61.048V169.728H73.756V165.984H57.196ZM72.64 165.984V193.992C72.64 194.46 72.496 194.604 72.028 194.64C71.56 194.64 70.192 194.676 68.932 194.604C69.436 195.576 69.904 197.232 70.012 198.24C72.316 198.24 73.9 198.168 75.052 197.556C76.168 196.908 76.492 195.936 76.492 194.028V165.984H72.64ZM61.696 175.884V179.124H71.92V175.884H61.696ZM61.84 182.148V185.388H71.776V182.148H61.84ZM64.612 179.808C65.044 180.708 65.512 181.968 65.728 182.76L68.788 181.644C68.572 180.888 68.032 179.736 67.564 178.872L64.612 179.808ZM52.156 179.772C52.984 181.968 53.956 184.92 54.28 186.684L57.304 185.424C56.836 183.768 55.828 180.888 54.928 178.728L52.156 179.772ZM48.628 188.664C48.988 191.076 49.348 194.208 49.384 196.296L52.408 195.504C52.264 193.416 51.904 190.356 51.436 187.98L48.628 188.664ZM44.704 188.196C44.524 191.112 44.128 194.352 43.336 196.44C44.128 196.656 45.604 197.16 46.324 197.556C47.044 195.324 47.584 191.94 47.836 188.736L44.704 188.196ZM44.632 178.728C44.632 178.044 46.756 176.856 46.756 176.856V176.784C48.988 173.976 51.328 169.836 52.948 165.984L49.492 164.508C48.304 168.324 46.108 172.32 45.388 173.364C44.704 174.408 44.092 175.092 43.444 175.272C43.876 176.244 44.452 178.008 44.632 178.728ZM44.632 178.728C45.28 178.404 46.36 178.152 51.796 177.612C51.832 176.82 51.976 175.452 52.192 174.48L46.144 174.912L44.56 175.992L44.632 178.728ZM44.884 187.08C44.884 186.396 47.044 185.244 47.044 185.244V185.172C50.428 181.5 53.956 176.424 56.44 171.528L53.308 169.476C51.148 174.552 47.584 179.808 46.432 181.14C45.316 182.508 44.596 183.372 43.732 183.588C44.128 184.56 44.74 186.36 44.884 187.08ZM44.884 187.08C45.676 186.648 47.008 186.288 55.288 184.992C55.252 184.236 55.324 182.832 55.432 181.896L46.288 183.156L44.74 184.272L44.884 187.08ZM52.444 187.836C53.164 189.996 53.992 192.876 54.316 194.784L57.124 193.704C56.728 191.868 55.9 189.096 55.108 186.9L52.444 187.836ZM62.92 183.912V187.548C62.92 190.428 63.568 191.616 66.628 191.616C67.168 191.616 69.04 191.616 69.652 191.616C70.444 191.616 71.38 191.58 71.884 191.4C71.776 190.572 71.704 189.348 71.632 188.448C71.092 188.628 70.12 188.664 69.544 188.664C69.076 188.664 67.456 188.664 67.024 188.664C66.448 188.664 66.34 188.376 66.34 187.584V183.912H62.92ZM94.168 180.564H109.54V182.544H94.168V180.564ZM94.168 185.64H109.54V187.656H94.168V185.64ZM94.168 175.488H109.54V177.468H94.168V175.488ZM89.632 172.212V190.932H114.256V172.212H89.632ZM103.528 193.56C107.524 194.928 111.664 196.908 114.04 198.24L118.36 195.36C115.588 194.028 110.872 192.12 106.768 190.752L103.528 193.56ZM86.572 166.092V170.016H116.776V166.092H86.572ZM99.46 168C99.352 169.692 98.92 172.032 98.524 173.688L102.7 174.372C103.276 172.896 104.032 170.772 104.716 168.54L99.46 168ZM96.328 190.5C93.844 192.048 88.984 193.92 85.168 194.892C86.176 195.792 87.436 197.268 88.156 198.204C91.936 197.16 96.832 195.252 100.072 193.452L96.328 190.5ZM128.08 175.416V178.692H139.168V175.416H128.08ZM128.08 180.312V183.552H139.24V180.312H128.08ZM126.568 170.412V173.832H140.68V170.412H126.568ZM130.024 185.28V188.736H135.46V192.768H130.024V196.224H139.204V185.28H130.024ZM128.116 185.28V197.772H131.788V185.28H128.116ZM130.204 165.876C131.104 167.424 132.22 169.62 132.724 170.988L136.216 169.08C135.64 167.748 134.524 165.768 133.552 164.256L130.204 165.876ZM143.92 165.588V169.584H153.532V165.588H143.92ZM140.068 180.06V184.092H155.908V180.06H140.068ZM154.396 180.06V180.708C152.38 188.196 146.44 192.66 138.736 194.316C139.492 195.252 140.428 197.052 140.86 198.168C149.5 195.792 155.98 190.86 158.608 181.032L155.908 179.916L155.188 180.06H154.396ZM144.784 183.66L141.076 184.92C144.46 191.688 149.824 196.152 157.672 198.096C158.212 196.908 159.4 195.072 160.336 194.136C152.92 192.696 147.448 188.952 144.784 183.66ZM143.128 165.588V169.476C143.128 171.888 142.696 174.516 138.736 176.46C139.492 177.072 141.004 178.764 141.508 179.628C146.08 177.18 147.088 173.148 147.088 169.62V165.588H143.128ZM151.372 165.588V173.436C151.372 177.036 152.056 178.548 155.44 178.548C155.944 178.548 156.844 178.548 157.312 178.548C158.068 178.548 158.86 178.512 159.364 178.26C159.184 177.288 159.112 175.776 159.076 174.696C158.608 174.84 157.78 174.948 157.312 174.948C156.988 174.948 156.16 174.948 155.836 174.948C155.404 174.948 155.368 174.516 155.368 173.472V165.588H151.372ZM170.2 175.416V178.692H182.332V175.416H170.2ZM170.2 180.312V183.552H182.296V180.312H170.2ZM168.616 170.412V173.832H183.844V170.412H168.616ZM172.216 185.28V188.736H178.66V192.768H172.216V196.224H182.368V185.28H172.216ZM170.344 185.28V197.772H173.98V185.28H170.344ZM172.612 165.876C173.512 167.424 174.664 169.62 175.132 170.988L178.588 169.08C178.012 167.748 176.932 165.768 175.96 164.256L172.612 165.876ZM183.736 176.424V180.672H201.232V176.424H183.736ZM190.036 165.084V198.24H194.536V165.084H190.036Z" fill="#2D3F58"/>
</svg>
