<svg width="157" height="124" viewBox="0 0 157 124" fill="none" xmlns="http://www.w3.org/2000/svg">
<path d="M118.955 38.4466C120.454 39.1293 121.857 40.0146 123.171 41.0207C142.847 56.0805 155.181 73.0368 156.259 98.2645C156.87 112.576 144.135 122.697 130.055 122.733C123.461 122.751 116.615 122.768 108.962 122.789C86.3338 122.848 77.2237 122.872 56.9373 122.925C36.6508 122.979 9.66363 126.657 7.04653 108.584C4.90474 93.7929 6.76231 78.2854 21.114 61.2054C31.2926 49.0919 41.7087 40.2745 57.1542 35.3107C75.2722 29.488 101.395 30.4519 118.955 38.4466Z" fill="#96F0FE"/>
<path d="M105.506 41.1401C107.005 41.7982 108.398 42.68 109.701 43.6844C127.796 57.6333 139.28 74.6946 140.716 98.2439C141.591 112.592 128.788 122.776 114.661 122.776C108.957 122.776 103.018 122.776 96.4453 122.776C75.203 122.777 66.651 122.776 47.6073 122.777C28.5636 122.777 3.23806 126.151 0.739253 109.243C-1.30572 95.4057 0.402019 80.9082 13.8349 64.9709C23.3618 53.6678 33.1195 45.4477 47.6073 40.8435C64.5584 35.4566 89.0051 33.8939 105.506 41.1401Z" fill="#96F0FE" fill-opacity="0.05"/>
<path d="M112.62 37.3107C114.1 37.9759 115.482 38.8473 116.777 39.8362C136.718 55.0578 149.644 73.2721 151.082 98.9778C151.889 113.4 139.039 123.623 124.842 123.568C118.229 123.543 111.361 123.516 103.688 123.487C80.8994 123.4 71.7246 123.364 51.2944 123.286C30.8642 123.208 3.70787 126.702 0.960912 108.655C-1.28714 93.8858 0.488163 78.4275 14.8367 61.4816C25.013 49.4631 35.4489 40.7344 50.9736 35.8826C69.2018 30.186 94.9361 29.3596 112.62 37.3107Z" fill="#EDFDFF" fill-opacity="0.29"/>
<path d="M52.1302 47.323C54.8986 41.594 62.818 39.4158 66.3314 46.5735C70.7231 55.5205 48.0082 58.3858 52.1302 47.323Z" fill="white" fill-opacity="0.3"/>
<path d="M20.7991 75.1082C22.9291 59.4307 38.4723 46.7832 50.7703 59.5809C66.1428 75.5781 19.3118 104.19 20.7991 75.1082Z" fill="white" fill-opacity="0.3"/>
<path d="M64.0639 36.8341L65.2813 32.0384C58.3307 25.112 59.7766 16.4453 61.3684 12.9778C71.5907 -5.76461 93.4113 0.305051 101.754 6.92433C108.768 13.8077 114.67 18.5494 116.657 19.692C117.833 16.4009 123.865 12.5986 126.733 11.1088C128.241 10.2129 131.451 9.00488 132.224 11.3401C132.998 13.6754 130.766 14.8431 129.553 15.135C126.842 15.7247 122.665 20.1292 120.915 22.2577C123.011 24.5239 134.501 29.5146 142.147 32.6074C144.228 33.4491 146.254 34.5228 147.792 36.1843C155.168 44.1532 149.191 50.7361 144.865 53.1987L142.227 54.3403C142.135 58.739 139.085 59.9895 137.572 60.0649C114.829 54.3591 68.7514 42.5855 66.3867 41.1377C64.022 39.6898 63.8529 37.6654 64.0639 36.8341Z" fill="#3B4659"/>
<path d="M144.449 53.1921L65.2654 32.1381L63.9993 37.1256C63.4929 39.1206 65.5026 40.7334 66.5708 41.2905L137.556 60.1646C141.504 59.4123 142.337 55.9068 142.26 54.2482L144.449 53.1921Z" fill="#333333"/>
<ellipse cx="56.0607" cy="89.235" rx="5.26655" ry="5.40636" fill="#54758B"/>
<ellipse cx="110.833" cy="89.9557" rx="5.26655" ry="5.40636" fill="#54758B"/>
<path d="M84.1167 93.9204C74.7216 93.9204 82.7943 99.2588 83.1249 98.9538H85.1085C85.7697 98.9538 93.4651 93.9204 84.1167 93.9204Z" fill="#54758B"/>
<path d="M71.5093 104.733C71.7902 106.175 73.7329 107.016 74.6692 107.256C77.361 108.097 83.0255 107.544 84.149 98.606C84.2661 102.33 86.3961 109.275 93.9799 107.256C95.1502 106.776 97.4909 105.598 97.4909 104.733" stroke="#54758B" stroke-width="3"/>
</svg>
